<svg width="108" height="88" viewBox="0 0 108 88" fill="none" xmlns="http://www.w3.org/2000/svg">
<path fill-rule="evenodd" clip-rule="evenodd" d="M47.2 33.25L47.1696 33.25C46.6354 33.25 46.1896 33.25 45.8253 33.2797C45.4454 33.3108 45.0888 33.3779 44.7515 33.5497C44.2341 33.8134 43.8134 34.2341 43.5497 34.7515C43.3779 35.0888 43.3108 35.4454 43.2797 35.8253C43.25 36.1896 43.25 36.6354 43.25 37.1696L43.25 37.2V40.8L43.25 40.8304C43.25 41.3646 43.25 41.8104 43.2797 42.1747C43.3108 42.5546 43.3779 42.9112 43.5497 43.2485C43.8134 43.7659 44.2341 44.1866 44.7515 44.4503C45.0888 44.6221 45.4454 44.6892 45.8253 44.7203C46.1896 44.75 46.6354 44.75 47.1695 44.75H47.1695H47.2H48.8H48.8305H48.8305C49.3646 44.75 49.8105 44.75 50.1747 44.7203C50.5546 44.6892 50.9112 44.6221 51.2485 44.4503C51.7659 44.1866 52.1866 43.7659 52.4503 43.2485C52.6221 42.9112 52.6892 42.5546 52.7203 42.1747C52.75 41.8105 52.75 41.3646 52.75 40.8305V40.8305V40.8V37.2V37.1695V37.1695C52.75 36.6354 52.75 36.1896 52.7203 35.8253C52.6892 35.4454 52.6221 35.0888 52.4503 34.7515C52.1866 34.2341 51.7659 33.8134 51.2485 33.5497C50.9112 33.3779 50.5546 33.3108 50.1747 33.2797C49.8104 33.25 49.3646 33.25 48.8304 33.25L48.8 33.25H47.2ZM45.4325 34.8862C45.5231 34.8401 45.6604 34.7982 45.9475 34.7748C46.2434 34.7506 46.6276 34.75 47.2 34.75H48.8C49.3724 34.75 49.7566 34.7506 50.0525 34.7748C50.3396 34.7982 50.4769 34.8401 50.5675 34.8862C50.8027 35.0061 50.9939 35.1973 51.1138 35.4325C51.1599 35.5231 51.2018 35.6604 51.2252 35.9475C51.2494 36.2434 51.25 36.6276 51.25 37.2V40.8C51.25 41.3724 51.2494 41.7566 51.2252 42.0525C51.2018 42.3396 51.1599 42.4769 51.1138 42.5675C50.9939 42.8027 50.8027 42.9939 50.5675 43.1138C50.4769 43.1599 50.3396 43.2018 50.0525 43.2252C49.7566 43.2494 49.3724 43.25 48.8 43.25H47.2C46.6276 43.25 46.2434 43.2494 45.9475 43.2252C45.6604 43.2018 45.5231 43.1599 45.4325 43.1138C45.1973 42.9939 45.0061 42.8027 44.8862 42.5675C44.8401 42.4769 44.7982 42.3396 44.7748 42.0525C44.7506 41.7566 44.75 41.3724 44.75 40.8V37.2C44.75 36.6276 44.7506 36.2434 44.7748 35.9475C44.7982 35.6604 44.8401 35.5231 44.8862 35.4325C45.0061 35.1973 45.1973 35.0061 45.4325 34.8862ZM47 47.25H46.9748C46.5303 47.25 46.1592 47.25 45.8546 47.2708C45.5375 47.2924 45.238 47.339 44.9476 47.4593C44.2738 47.7384 43.7384 48.2738 43.4593 48.9476C43.339 49.238 43.2924 49.5375 43.2708 49.8546C43.25 50.1592 43.25 50.5303 43.25 50.9747L43.25 51L43.25 51.0253C43.25 51.4697 43.25 51.8408 43.2708 52.1454C43.2924 52.4625 43.339 52.762 43.4593 53.0524C43.7384 53.7262 44.2738 54.2616 44.9476 54.5407C45.238 54.661 45.5375 54.7076 45.8546 54.7292C46.1592 54.75 46.5303 54.75 46.9747 54.75H47H49H49.0253C49.4697 54.75 49.8408 54.75 50.1454 54.7292C50.4625 54.7076 50.762 54.661 51.0524 54.5407C51.7262 54.2616 52.2616 53.7262 52.5407 53.0524C52.661 52.762 52.7076 52.4625 52.7292 52.1454C52.75 51.8408 52.75 51.4697 52.75 51.0253V51V50.9747C52.75 50.5303 52.75 50.1592 52.7292 49.8546C52.7076 49.5375 52.661 49.238 52.5407 48.9476C52.2616 48.2738 51.7262 47.7384 51.0524 47.4593C50.762 47.339 50.4625 47.2924 50.1454 47.2708C49.8408 47.25 49.4697 47.25 49.0253 47.25H49H47ZM45.5216 48.8452C45.5988 48.8132 45.716 48.7837 45.9567 48.7673C46.2042 48.7504 46.5238 48.75 47 48.75H49C49.4762 48.75 49.7958 48.7504 50.0433 48.7673C50.284 48.7837 50.4012 48.8132 50.4784 48.8452C50.7846 48.972 51.028 49.2154 51.1549 49.5216C51.1868 49.5988 51.2163 49.716 51.2327 49.9567C51.2496 50.2042 51.25 50.5238 51.25 51C51.25 51.4762 51.2496 51.7958 51.2327 52.0433C51.2163 52.284 51.1868 52.4012 51.1549 52.4784C51.028 52.7846 50.7846 53.028 50.4784 53.1549C50.4012 53.1868 50.284 53.2163 50.0433 53.2327C49.7958 53.2496 49.4762 53.25 49 53.25H47C46.5238 53.25 46.2042 53.2496 45.9567 53.2327C45.716 53.2163 45.5988 53.1868 45.5216 53.1549C45.2154 53.028 44.972 52.7846 44.8452 52.4784C44.8132 52.4012 44.7837 52.284 44.7673 52.0433C44.7504 51.7958 44.75 51.4762 44.75 51C44.75 50.5238 44.7504 50.2042 44.7673 49.9567C44.7837 49.716 44.8132 49.5988 44.8452 49.5216C44.972 49.2154 45.2154 48.972 45.5216 48.8452ZM58.9747 33.25L59 33.25H61L61.0253 33.25C61.4697 33.25 61.8408 33.25 62.1454 33.2708C62.4625 33.2924 62.762 33.339 63.0524 33.4593C63.7262 33.7384 64.2616 34.2738 64.5407 34.9476C64.661 35.238 64.7076 35.5375 64.7292 35.8546C64.75 36.1592 64.75 36.5303 64.75 36.9747V37V37.0253C64.75 37.4697 64.75 37.8408 64.7292 38.1454C64.7076 38.4625 64.661 38.762 64.5407 39.0524C64.2616 39.7262 63.7262 40.2616 63.0524 40.5407C62.762 40.661 62.4625 40.7076 62.1454 40.7292C61.8408 40.75 61.4697 40.75 61.0253 40.75H61H59H58.9747C58.5303 40.75 58.1592 40.75 57.8546 40.7292C57.5375 40.7076 57.238 40.661 56.9476 40.5407C56.2738 40.2616 55.7384 39.7262 55.4593 39.0524C55.339 38.762 55.2924 38.4625 55.2708 38.1454C55.25 37.8408 55.25 37.4697 55.25 37.0253V37V36.9748C55.25 36.5303 55.25 36.1592 55.2708 35.8546C55.2924 35.5375 55.339 35.238 55.4593 34.9476C55.7384 34.2738 56.2738 33.7384 56.9476 33.4593C57.238 33.339 57.5375 33.2924 57.8546 33.2708C58.1592 33.25 58.5303 33.25 58.9747 33.25ZM57.9567 34.7673C57.716 34.7837 57.5988 34.8132 57.5216 34.8452C57.2154 34.972 56.972 35.2154 56.8452 35.5216C56.8132 35.5988 56.7837 35.716 56.7673 35.9567C56.7504 36.2042 56.75 36.5238 56.75 37C56.75 37.4762 56.7504 37.7958 56.7673 38.0433C56.7837 38.284 56.8132 38.4012 56.8452 38.4784C56.972 38.7846 57.2154 39.028 57.5216 39.1549C57.5988 39.1868 57.716 39.2163 57.9567 39.2327C58.2042 39.2496 58.5238 39.25 59 39.25H61C61.4762 39.25 61.7958 39.2496 62.0433 39.2327C62.284 39.2163 62.4012 39.1868 62.4784 39.1549C62.7846 39.028 63.028 38.7846 63.1549 38.4784C63.1868 38.4012 63.2163 38.284 63.2327 38.0433C63.2496 37.7958 63.25 37.4762 63.25 37C63.25 36.5238 63.2496 36.2042 63.2327 35.9567C63.2163 35.716 63.1868 35.5988 63.1549 35.5216C63.028 35.2154 62.7846 34.972 62.4784 34.8452C62.4012 34.8132 62.284 34.7837 62.0433 34.7673C61.7958 34.7504 61.4762 34.75 61 34.75H59C58.5238 34.75 58.2042 34.7504 57.9567 34.7673ZM59.2 43.25H59.1696C58.6354 43.25 58.1896 43.25 57.8253 43.2797C57.4454 43.3108 57.0888 43.3779 56.7515 43.5497C56.2341 43.8134 55.8134 44.2341 55.5497 44.7515C55.3779 45.0888 55.3108 45.4454 55.2797 45.8253C55.25 46.1896 55.25 46.6354 55.25 47.1696V47.2V50.8V50.8304C55.25 51.3646 55.25 51.8104 55.2797 52.1747C55.3108 52.5546 55.3779 52.9112 55.5497 53.2485C55.8134 53.7659 56.2341 54.1866 56.7515 54.4503C57.0888 54.6221 57.4454 54.6892 57.8253 54.7203C58.1895 54.75 58.6353 54.75 59.1694 54.75H59.1695H59.2H60.8H60.8305H60.8306C61.3647 54.75 61.8105 54.75 62.1747 54.7203C62.5546 54.6892 62.9112 54.6221 63.2485 54.4503C63.7659 54.1866 64.1866 53.7659 64.4503 53.2485C64.6221 52.9112 64.6892 52.5546 64.7203 52.1747C64.75 51.8105 64.75 51.3647 64.75 50.8306V50.8305V50.8V47.2V47.1695V47.1694C64.75 46.6353 64.75 46.1895 64.7203 45.8253C64.6892 45.4454 64.6221 45.0888 64.4503 44.7515C64.1866 44.2341 63.7659 43.8134 63.2485 43.5497C62.9112 43.3779 62.5546 43.3108 62.1747 43.2797C61.8104 43.25 61.3646 43.25 60.8304 43.25H60.8H59.2ZM57.4325 44.8862C57.5231 44.8401 57.6604 44.7982 57.9475 44.7748C58.2434 44.7506 58.6276 44.75 59.2 44.75H60.8C61.3724 44.75 61.7566 44.7506 62.0525 44.7748C62.3396 44.7982 62.4769 44.8401 62.5675 44.8862C62.8027 45.0061 62.9939 45.1973 63.1138 45.4325C63.1599 45.5231 63.2018 45.6604 63.2252 45.9475C63.2494 46.2434 63.25 46.6276 63.25 47.2V50.8C63.25 51.3724 63.2494 51.7566 63.2252 52.0525C63.2018 52.3396 63.1599 52.4769 63.1138 52.5675C62.9939 52.8027 62.8027 52.9939 62.5675 53.1138C62.4769 53.1599 62.3396 53.2018 62.0525 53.2252C61.7566 53.2494 61.3724 53.25 60.8 53.25H59.2C58.6276 53.25 58.2434 53.2494 57.9475 53.2252C57.6604 53.2018 57.5231 53.1599 57.4325 53.1138C57.1973 52.9939 57.0061 52.8027 56.8862 52.5675C56.8401 52.4769 56.7982 52.3396 56.7748 52.0525C56.7506 51.7566 56.75 51.3724 56.75 50.8V47.2C56.75 46.6276 56.7506 46.2434 56.7748 45.9475C56.7982 45.6604 56.8401 45.5231 56.8862 45.4325C57.0061 45.1973 57.1973 45.0061 57.4325 44.8862Z" fill="#666666"/>
</svg>
