<svg width="108" height="88" viewBox="0 0 108 88" fill="none" xmlns="http://www.w3.org/2000/svg">
<path d="M47.3661 52.7615L47.9214 52.2573H47.9214L47.3661 52.7615ZM48.5 53.5262L48.125 54.1758H48.125L48.5 53.5262ZM46.8529 51.2612L47.6006 51.3196L46.8529 51.2612ZM47.2809 49.9621L46.5867 49.6783H46.5867L47.2809 49.9621ZM47.0782 48.0138L46.429 48.3893L46.4298 48.3906L47.0782 48.0138ZM47.0615 47.9848L46.4115 48.359L46.4123 48.3603L47.0615 47.9848ZM45.4771 46.8378L45.5784 46.0947H45.5784L45.4771 46.8378ZM44.1381 46.559L43.8148 47.2358L43.8148 47.2358L44.1381 46.559ZM43.0954 45.3644L43.8096 45.1356H43.8096L43.0954 45.3644ZM43.0954 42.6356L43.8096 42.8645L43.8096 42.8645L43.0954 42.6356ZM44.1381 41.4411L43.8148 40.7643H43.8148L44.1381 41.4411ZM45.4771 41.1623L45.5784 41.9054H45.5784L45.4771 41.1623ZM47.0615 40.0152L46.4122 39.6398L46.4115 39.6411L47.0615 40.0152ZM47.0782 39.9863L46.4298 39.6094L46.429 39.6108L47.0782 39.9863ZM47.2809 38.0379L47.9753 37.7541L47.9703 37.7425L47.2809 38.0379ZM47.2809 38.0379L46.5761 38.2942C46.5809 38.3074 46.586 38.3205 46.5916 38.3334L47.2809 38.0379ZM47.2809 38.0379L47.9858 37.7816C47.9824 37.7724 47.9789 37.7632 47.9752 37.7541L47.2809 38.0379ZM46.8529 36.7389L47.6006 36.6804V36.6804L46.8529 36.7389ZM47.3661 35.2386L46.8108 34.7345L47.3661 35.2386ZM48.5 34.4738L48.875 35.1233C48.8889 35.1153 48.9026 35.1068 48.916 35.0979L48.5 34.4738ZM48.5 34.4738L48.1375 33.8172C48.1192 33.8273 48.1014 33.8382 48.084 33.8498L48.5 34.4738ZM48.5 34.4738L48.8625 35.1304C48.8667 35.1281 48.8709 35.1257 48.875 35.1233L48.5 34.4738ZM49.7293 33.8742L49.8882 34.6072L49.7293 33.8742ZM51.2852 34.1799L51.7096 33.5616V33.5616L51.2852 34.1799ZM52.1961 35.2001L52.789 34.7408V34.7408L52.1961 35.2001ZM53.9837 36.0001L53.9829 35.2501L53.9822 35.2501L53.9837 36.0001ZM54 36L54.0007 35.25L53.9992 35.25L54 36ZM54.0161 36.0001L54.0175 35.2501L54.0168 35.2501L54.0161 36.0001ZM55.8039 35.2L56.3968 35.6593V35.6593L55.8039 35.2ZM56.7148 34.1798L56.2903 33.5615V33.5615L56.7148 34.1798ZM58.2707 33.8741L58.1118 34.607L58.2707 33.8741ZM59.5 34.4737L59.125 35.1232V35.1232L59.5 34.4737ZM60.6339 35.2385L61.1892 34.7343L61.1892 34.7343L60.6339 35.2385ZM61.1471 36.7388L60.3994 36.6803V36.6803L61.1471 36.7388ZM60.7191 38.0378L60.0248 37.754C60.0163 37.7747 60.0088 37.7958 60.0022 37.8172L60.7191 38.0378ZM60.719 38.0378L61.4133 38.3216C61.4218 38.3009 61.4293 38.2798 61.4359 38.2583L60.719 38.0378ZM60.9218 39.9863L61.571 39.6108L61.5702 39.6095L60.9218 39.9863ZM60.9385 40.0152L61.5885 39.6411L61.5878 39.6398L60.9385 40.0152ZM62.5229 41.1623L62.4216 41.9054L62.5229 41.1623ZM63.8619 41.4411L63.5387 42.1179L63.8619 41.4411ZM64.9046 42.6356L64.1904 42.8645V42.8645L64.9046 42.6356ZM64.9046 45.3644L64.1904 45.1356V45.1356L64.9046 45.3644ZM63.8619 46.559L64.1852 47.2358L64.1852 47.2358L63.8619 46.559ZM62.5229 46.8378L62.4216 46.0947H62.4216L62.5229 46.8378ZM60.9385 47.9849L61.5878 48.3603L61.5885 48.359L60.9385 47.9849ZM60.9218 48.0138L61.5702 48.3906L61.571 48.3892L60.9218 48.0138ZM60.7191 49.9623L61.4133 49.6785V49.6785L60.7191 49.9623ZM61.1471 51.2613L61.8948 51.2028V51.2028L61.1471 51.2613ZM60.6339 52.7616L61.1892 53.2658V53.2657L60.6339 52.7616ZM59.5 53.5264L59.875 54.1759L59.5 53.5264ZM58.2707 54.126L58.1118 53.393H58.1118L58.2707 54.126ZM56.7148 53.8203L57.1393 53.202H57.1393L56.7148 53.8203ZM55.8039 52.8001L56.3968 52.3407L55.8039 52.8001ZM54.0161 52L54.0168 52.75L54.0175 52.75L54.0161 52ZM54 52L53.9993 52.75L54.0007 52.75L54 52ZM53.9837 52L53.9822 52.75L53.983 52.75L53.9837 52ZM52.1961 52.7999L51.6032 52.3406L51.6032 52.3406L52.1961 52.7999ZM51.2852 53.8201L51.7096 54.4384L51.7096 54.4384L51.2852 53.8201ZM49.7293 54.1259L49.8882 53.3929H49.8882L49.7293 54.1259ZM46.8108 53.2656C47.1192 53.6053 47.5569 53.8477 48.125 54.1758L48.875 52.8767C48.2114 52.4936 48.0332 52.3805 47.9214 52.2573L46.8108 53.2656ZM46.1052 51.2027C46.0461 51.9582 46.3014 52.7046 46.8108 53.2656L47.9214 52.2573C47.6898 52.0023 47.5738 51.663 47.6006 51.3196L46.1052 51.2027ZM46.5867 49.6783C46.3385 50.2856 46.141 50.7453 46.1052 51.2027L47.6006 51.3196C47.6136 51.1538 47.6852 50.9553 47.9752 50.2459L46.5867 49.6783ZM46.4298 48.3906C46.6878 48.8346 46.7386 49.3068 46.5867 49.6783L47.9752 50.2459C48.3434 49.3452 48.1593 48.3814 47.7267 47.637L46.4298 48.3906ZM46.4123 48.3603L46.429 48.3893L47.7275 47.6383L47.7107 47.6094L46.4123 48.3603ZM45.3757 47.5809C45.7726 47.6351 46.1556 47.9145 46.4115 48.359L47.7115 47.6107C47.2829 46.8659 46.5412 46.226 45.5784 46.0947L45.3757 47.5809ZM43.8148 47.2358C44.2288 47.4335 44.7257 47.4923 45.3757 47.5809L45.5784 46.0947C44.8191 45.9912 44.6114 45.9539 44.4613 45.8822L43.8148 47.2358ZM42.3811 45.5933C42.6123 46.3149 43.131 46.9092 43.8148 47.2358L44.4613 45.8822C44.1505 45.7338 43.9147 45.4636 43.8096 45.1356L42.3811 45.5933ZM42.25 44C42.25 44.6561 42.2411 45.1564 42.3811 45.5933L43.8096 45.1356C43.7589 44.9772 43.75 44.7663 43.75 44H42.25ZM42.3811 42.4068C42.2411 42.8437 42.25 43.344 42.25 44H43.75C43.75 43.2337 43.7589 43.0229 43.8096 42.8645L42.3811 42.4068ZM43.8148 40.7643C43.131 41.0909 42.6123 41.6852 42.3811 42.4068L43.8096 42.8645C43.9147 42.5364 44.1505 42.2663 44.4613 42.1179L43.8148 40.7643ZM45.3757 40.4191C44.7257 40.5078 44.2288 40.5666 43.8148 40.7643L44.4613 42.1179C44.6114 42.0462 44.8191 42.0089 45.5784 41.9054L45.3757 40.4191ZM46.4115 39.6411C46.1556 40.0856 45.7726 40.365 45.3757 40.4191L45.5784 41.9054C46.5412 41.7741 47.2829 41.1342 47.7115 40.3894L46.4115 39.6411ZM46.429 39.6108L46.4122 39.6398L47.7107 40.3907L47.7275 40.3618L46.429 39.6108ZM46.5867 38.3217C46.7386 38.6933 46.6878 39.1655 46.4298 39.6094L47.7267 40.3631C48.1593 39.6187 48.3434 38.6549 47.9752 37.7541L46.5867 38.3217ZM46.5916 38.3334L46.5916 38.3334L47.9703 37.7425L47.9703 37.7425L46.5916 38.3334ZM46.5761 38.2942L46.5761 38.2942L47.9858 37.7816L47.9858 37.7816L46.5761 38.2942ZM46.1052 36.7974C46.141 37.2547 46.3385 37.7145 46.5867 38.3217L47.9752 37.7541C47.6852 37.0448 47.6136 36.8462 47.6006 36.6804L46.1052 36.7974ZM46.8108 34.7345C46.3014 35.2955 46.0461 36.0419 46.1052 36.7974L47.6006 36.6804C47.5738 36.337 47.6898 35.9978 47.9214 35.7428L46.8108 34.7345ZM48.125 33.8243C47.5568 34.1523 47.1192 34.3948 46.8108 34.7345L47.9214 35.7428C48.0332 35.6196 48.2114 35.5065 48.875 35.1233L48.125 33.8243ZM48.084 33.8498L48.084 33.8498L48.916 35.0979L48.916 35.0979L48.084 33.8498ZM48.1375 33.8172L48.1375 33.8172L48.8625 35.1304L48.8625 35.1304L48.1375 33.8172ZM49.5703 33.1412C49.122 33.2385 48.6931 33.4963 48.125 33.8243L48.875 35.1233C49.5386 34.7402 49.7257 34.6424 49.8882 34.6072L49.5703 33.1412ZM51.7096 33.5616C51.0849 33.1327 50.3109 32.9806 49.5703 33.1412L49.8882 34.6072C50.2249 34.5342 50.5767 34.6033 50.8607 34.7983L51.7096 33.5616ZM52.789 34.7408C52.3872 34.2222 52.0879 33.8213 51.7096 33.5616L50.8607 34.7983C50.9978 34.8924 51.1339 35.0537 51.6032 35.6595L52.789 34.7408ZM53.9822 35.2501C53.4695 35.2511 53.0352 35.0586 52.789 34.7408L51.6032 35.6595C52.1985 36.4279 53.1239 36.7518 53.9852 36.7501L53.9822 35.2501ZM53.9992 35.25L53.9829 35.2501L53.9844 36.7501L54.0008 36.75L53.9992 35.25ZM54.0168 35.2501L54.0007 35.25L53.9993 36.75L54.0153 36.7501L54.0168 35.2501ZM55.211 34.7407C54.9648 35.0585 54.5303 35.2511 54.0175 35.2501L54.0146 36.75C54.8759 36.7517 55.8014 36.4278 56.3968 35.6593L55.211 34.7407ZM56.2903 33.5615C55.9121 33.8211 55.6127 34.2221 55.211 34.7407L56.3968 35.6593C56.8661 35.0535 57.0022 34.8922 57.1393 34.7981L56.2903 33.5615ZM58.4297 33.1411C57.6891 32.9805 56.9151 33.1326 56.2903 33.5615L57.1393 34.7981C57.4233 34.6032 57.7751 34.534 58.1118 34.607L58.4297 33.1411ZM59.875 33.8242C59.3068 33.4961 58.878 33.2383 58.4297 33.1411L58.1118 34.607C58.2743 34.6423 58.4614 34.74 59.125 35.1232L59.875 33.8242ZM61.1892 34.7343C60.8808 34.3947 60.4431 34.1522 59.875 33.8242L59.125 35.1232C59.7886 35.5064 59.9668 35.6195 60.0786 35.7426L61.1892 34.7343ZM61.8948 36.7972C61.9539 36.0417 61.6986 35.2954 61.1892 34.7343L60.0786 35.7426C60.3102 35.9976 60.4262 36.3369 60.3994 36.6803L61.8948 36.7972ZM61.4133 38.3216C61.6615 37.7143 61.859 37.2546 61.8948 36.7972L60.3994 36.6803C60.3864 36.8461 60.3148 37.0447 60.0248 37.754L61.4133 38.3216ZM61.4359 38.2583L61.4359 38.2583L60.0022 37.8172L60.0022 37.8172L61.4359 38.2583ZM61.5702 39.6095C61.3122 39.1654 61.2614 38.6932 61.4133 38.3216L60.0248 37.754C59.6566 38.6548 59.8407 39.6186 60.2733 40.3631L61.5702 39.6095ZM61.5878 39.6398L61.571 39.6108L60.2725 40.3618L60.2893 40.3907L61.5878 39.6398ZM62.6243 40.4191C62.2274 40.365 61.8444 40.0856 61.5885 39.6411L60.2885 40.3893C60.7171 41.1341 61.4588 41.7741 62.4216 41.9054L62.6243 40.4191ZM64.1852 40.7643C63.7712 40.5666 63.2743 40.5078 62.6243 40.4191L62.4216 41.9054C63.1809 42.0089 63.3886 42.0462 63.5387 42.1179L64.1852 40.7643ZM65.6189 42.4068C65.3877 41.6852 64.869 41.0909 64.1852 40.7643L63.5387 42.1179C63.8495 42.2663 64.0853 42.5364 64.1904 42.8645L65.6189 42.4068ZM65.75 44C65.75 43.344 65.7589 42.8437 65.6189 42.4068L64.1904 42.8645C64.2411 43.0229 64.25 43.2337 64.25 44H65.75ZM65.6189 45.5933C65.7589 45.1564 65.75 44.6561 65.75 44H64.25C64.25 44.7663 64.2411 44.9772 64.1904 45.1356L65.6189 45.5933ZM64.1852 47.2358C64.869 46.9092 65.3877 46.3149 65.6189 45.5933L64.1904 45.1356C64.0853 45.4636 63.8495 45.7338 63.5387 45.8822L64.1852 47.2358ZM62.6243 47.5809C63.2743 47.4923 63.7712 47.4335 64.1852 47.2358L63.5387 45.8822C63.3886 45.9539 63.1809 45.9912 62.4216 46.0947L62.6243 47.5809ZM61.5885 48.359C61.8444 47.9145 62.2274 47.6351 62.6243 47.5809L62.4216 46.0947C61.4588 46.226 60.7171 46.8659 60.2885 47.6107L61.5885 48.359ZM61.571 48.3892L61.5878 48.3603L60.2892 47.6094L60.2725 47.6383L61.571 48.3892ZM61.4133 49.6785C61.2614 49.3069 61.3122 48.8346 61.5702 48.3906L60.2733 47.6369C59.8407 48.3814 59.6566 49.3453 60.0248 50.2461L61.4133 49.6785ZM61.8948 51.2028C61.859 50.7455 61.6615 50.2857 61.4133 49.6785L60.0248 50.2461C60.3148 50.9554 60.3864 51.154 60.3994 51.3198L61.8948 51.2028ZM61.1892 53.2657C61.6986 52.7047 61.9539 51.9583 61.8948 51.2028L60.3994 51.3198C60.4262 51.6632 60.3102 52.0024 60.0786 52.2575L61.1892 53.2657ZM59.875 54.1759C60.4431 53.8479 60.8808 53.6054 61.1892 53.2658L60.0786 52.2575C59.9668 52.3806 59.7886 52.4937 59.125 52.8769L59.875 54.1759ZM58.4297 54.859C58.878 54.7617 59.3069 54.5039 59.875 54.1759L59.125 52.8769C58.4614 53.26 58.2743 53.3578 58.1118 53.393L58.4297 54.859ZM56.2903 54.4386C56.9151 54.8675 57.6891 55.0196 58.4297 54.859L58.1118 53.393C57.7751 53.4661 57.4233 53.3969 57.1393 53.202L56.2903 54.4386ZM55.211 53.2594C55.6127 53.778 55.9121 54.1789 56.2903 54.4386L57.1393 53.202C57.0022 53.1078 56.8661 52.9465 56.3968 52.3407L55.211 53.2594ZM54.0175 52.75C54.5303 52.749 54.9648 52.9416 55.211 53.2594L56.3968 52.3407C55.8014 51.5723 54.8759 51.2483 54.0146 51.25L54.0175 52.75ZM54.0007 52.75L54.0168 52.75L54.0153 51.25L53.9993 51.25L54.0007 52.75ZM53.983 52.75L53.9993 52.75L54.0007 51.25L53.9844 51.25L53.983 52.75ZM52.789 53.2592C53.0352 52.9415 53.4695 52.749 53.9822 52.75L53.9852 51.25C53.1239 51.2483 52.1985 51.5722 51.6032 52.3406L52.789 53.2592ZM51.7096 54.4384C52.0879 54.1788 52.3872 53.7779 52.789 53.2592L51.6032 52.3406C51.1339 52.9464 50.9978 53.1077 50.8607 53.2018L51.7096 54.4384ZM49.5703 54.8588C50.3109 55.0194 51.0849 54.8673 51.7096 54.4384L50.8607 53.2018C50.5767 53.3968 50.2249 53.4659 49.8882 53.3929L49.5703 54.8588ZM48.125 54.1758C48.6931 54.5038 49.122 54.7616 49.5703 54.8588L49.8882 53.3929C49.7257 53.3576 49.5386 53.2599 48.875 52.8767L48.125 54.1758ZM56.25 44C56.25 45.2426 55.2426 46.25 54 46.25V47.75C56.0711 47.75 57.75 46.0711 57.75 44H56.25ZM54 41.75C55.2426 41.75 56.25 42.7574 56.25 44H57.75C57.75 41.9289 56.0711 40.25 54 40.25V41.75ZM51.75 44C51.75 42.7574 52.7574 41.75 54 41.75V40.25C51.9289 40.25 50.25 41.9289 50.25 44H51.75ZM54 46.25C52.7574 46.25 51.75 45.2426 51.75 44H50.25C50.25 46.0711 51.9289 47.75 54 47.75V46.25Z" fill="#666666"/>
</svg>
